<svg width="24" height="24" viewBox="0 0 24 24" fill="none" xmlns="http://www.w3.org/2000/svg">
<path d="M21.5507 4.81324H15.7847V6.60334H21.5734L21.5507 4.81324ZM20.3338 17.1281C19.8964 17.4517 19.3798 17.6158 18.8553 17.5979C18.5082 17.6383 18.1572 17.5982 17.8246 17.4803C17.4919 17.3623 17.1846 17.1689 16.922 16.9123C16.4363 16.2977 16.1835 15.4965 16.2168 14.6778H23.7456C23.7999 13.8254 23.7347 12.9687 23.5523 12.1387C23.3759 11.349 23.0672 10.6038 22.6425 9.94233C22.215 9.30069 21.6629 8.77548 21.0275 8.40614C20.3207 8.01707 19.541 7.82124 18.753 7.83483C18.0118 7.82877 17.2771 7.9885 16.5921 8.30457C15.9649 8.59974 15.3966 9.03132 14.9203 9.57415C14.4454 10.1278 14.0776 10.7847 13.8399 11.5039C13.5848 12.2803 13.4577 13.1018 13.4646 13.9288C13.4529 14.7675 13.5762 15.6017 13.8285 16.3918C14.0429 17.1072 14.3832 17.7676 14.8294 18.3342C15.291 18.8905 15.8583 19.3243 16.4898 19.6038C17.1939 19.9033 17.9428 20.0498 18.6961 20.0354C19.7531 20.0722 20.7967 19.7633 21.6985 19.1467C22.6094 18.4242 23.2652 17.3688 23.5523 16.1632H21.0389C20.9044 16.5621 20.6568 16.9009 20.3338 17.1281ZM16.4329 11.8975C16.5214 11.5809 16.6684 11.2886 16.8642 11.0393C17.0601 10.7901 17.3006 10.5894 17.5702 10.4502C17.9273 10.2707 18.3161 10.1839 18.7075 10.1962C18.9902 10.1693 19.2749 10.2109 19.5418 10.3183C19.8088 10.4257 20.0518 10.5963 20.2542 10.8183C20.6406 11.3464 20.8886 11.9835 20.9707 12.6592H16.251C16.2694 12.4012 16.3113 12.146 16.3761 11.8975H16.4329ZM10.4167 11.2881C10.9955 11.019 11.4985 10.5804 11.8724 10.0185C12.2161 9.42181 12.3869 8.72142 12.3615 8.01257C12.3837 7.36615 12.2708 6.72283 12.0316 6.1336C11.8307 5.62313 11.5081 5.18399 11.0991 4.86403C10.6654 4.53136 10.1729 4.30626 9.65472 4.20385C9.04152 4.06028 8.41607 3.99216 7.78958 4.00072H1V19.972H7.93742C8.57054 19.9725 9.20112 19.8829 9.81394 19.7054C10.3948 19.5376 10.9451 19.2584 11.4403 18.8801C11.9199 18.5091 12.3104 18.012 12.5775 17.4328C12.8731 16.7851 13.0178 16.0646 12.9983 15.338C13.0199 14.4376 12.7936 13.5514 12.3501 12.7989C11.8731 12.0421 11.1656 11.5051 10.3598 11.2881H10.4167ZM4.15027 6.7303H7.09583C7.36644 6.72993 7.63659 6.75541 7.9033 6.80648C8.1489 6.84711 8.38476 6.94206 8.59705 7.08578C8.80215 7.2153 8.96835 7.40966 9.07471 7.6444C9.20642 7.92588 9.2692 8.24122 9.25667 8.55849C9.27786 8.83175 9.24043 9.10671 9.14747 9.36061C9.05452 9.61451 8.90872 9.84003 8.72215 10.0185C8.31514 10.3309 7.82811 10.4868 7.33466 10.4629H4.15027V6.7303ZM9.65472 16.1759C9.53787 16.4347 9.36118 16.6538 9.14294 16.8107C8.91583 16.9684 8.66559 17.0802 8.40371 17.1408C8.11263 17.2135 7.81487 17.2476 7.51663 17.2424H4.10478V12.8623H7.51663C8.10212 12.8337 8.68031 13.0162 9.16569 13.3829C9.38497 13.6025 9.55483 13.8768 9.66153 14.1834C9.76822 14.4899 9.80874 14.8203 9.77982 15.1476C9.81057 15.4966 9.76772 15.8487 9.65472 16.1759Z" fill="white"/>
</svg>
